# xmcd
# 
# Track frame offsets:
#     150
#     20652
#     36725
#     50539
#     66383
#     81943
#     99705
#     117952
#     134593
#     147635
#     164399
#     181070
#     197367
#     212249
#     236196
#     253221
#     272801
# 
# Disc length: 3879
# 
# Revision: 3
# Processed by: cddbd v1.5.2PL0 Copyright (c) Steve Scherf et al.
# Submitted via: fre:ac v1.0.31
# 
DISCID=120f2511
DTITLE=Emmylou Harris - Songbird... Rare Tracks and Forgotten Gems  Disc 4
DYEAR=2007
DGENRE=Country
TTITLE0=Beyond The Blue (with Patty Griffin)
TTITLE1=First In Line (with John Starling)
TTITLE2=Highway Of Heartache (with Carl Jackson)
TTITLE3=Alone And Forsaken (with Mark Knopfler and His Band)
TTITLE4=Child Of Mine (with Pam Rose and Mary Ann Kennedy)
TTITLE5=Heaven Ain't Ready For You Yet
TTITLE6=Wish We Were Back In Missouri
TTITLE7=Mama's Hungry Eyes (with Rodney Crowell)
TTITLE8=Here We Are (with George Jones)
TTITLE9=Waltz Across Texas Tonight
TTITLE10=Snowin' On Raton
TTITLE11=Gone
TTITLE12=Don't Let Our Love Die (with Carl Jackson)
TTITLE13=The Pearl (live)
TTITLE14=Wildwood Flower (with Randy Scruggs and Iris DeMent)
TTITLE15=Love And Happiness (with Mark Knopfler)
TTITLE16=When We're Gone, Long Gone (with Linda Ronstadt and Dolly Parton)
EXTD=
EXTT0=
EXTT1=
EXTT2=
EXTT3=
EXTT4=
EXTT5=
EXTT6=
EXTT7=
EXTT8=
EXTT9=
EXTT10=
EXTT11=
EXTT12=
EXTT13=
EXTT14=
EXTT15=
EXTT16=
PLAYORDER=
